<svg xmlns="http://www.w3.org/2000/svg" width="750" height="480" viewBox="0 0 750 480">
  <defs>
    <linearGradient id="folderGrad" x1="0%" y1="0%" x2="0%" y2="100%">
      <stop offset="0%" style="stop-color:#fbbf24"/>
      <stop offset="100%" style="stop-color:#f59e0b"/>
    </linearGradient>
    <linearGradient id="docGrad" x1="0%" y1="0%" x2="0%" y2="100%">
      <stop offset="0%" style="stop-color:#60a5fa"/>
      <stop offset="100%" style="stop-color:#3b82f6"/>
    </linearGradient>
  </defs>
  
  <!-- Background -->
  <rect width="750" height="480" fill="#f8fafc"/>
  
  <!-- Title -->
  <text x="375" y="30" font-family="Arial, sans-serif" font-size="18" font-weight="bold" fill="#1e293b" text-anchor="middle">Repository Structure</text>
  
  <!-- Root folder -->
  <g>
    <rect x="30" y="50" width="220" height="28" rx="4" fill="url(#folderGrad)"/>
    <text x="45" y="69" font-family="Arial, sans-serif" font-size="13" font-weight="bold" fill="#78350f">📁 ai-security-reference-architecture/</text>
  </g>
  
  <!-- Control Framework -->
  <line x1="50" y1="78" x2="50" y2="100" stroke="#d1d5db" stroke-width="2"/>
  <line x1="50" y1="100" x2="70" y2="100" stroke="#d1d5db" stroke-width="2"/>
  <g>
    <rect x="75" y="86" width="180" height="28" rx="4" fill="url(#folderGrad)"/>
    <text x="90" y="105" font-family="Arial, sans-serif" font-size="12" font-weight="bold" fill="#78350f">📁 control-framework/</text>
  </g>
  <text x="270" y="105" font-family="Arial, sans-serif" font-size="11" fill="#64748b">Formal, auditable control model</text>
  
  <line x1="95" y1="114" x2="95" y2="175" stroke="#e5e7eb" stroke-width="1"/>
  <line x1="95" y1="130" x2="110" y2="130" stroke="#e5e7eb" stroke-width="1"/>
  <rect x="115" y="120" width="140" height="20" rx="3" fill="#f1f5f9"/>
  <text x="125" y="134" font-family="Arial, sans-serif" font-size="10" fill="#475569">📄 risk-classification.md</text>
  
  <line x1="95" y1="150" x2="110" y2="150" stroke="#e5e7eb" stroke-width="1"/>
  <rect x="115" y="140" width="140" height="20" rx="3" fill="#f1f5f9"/>
  <text x="125" y="154" font-family="Arial, sans-serif" font-size="10" fill="#475569">📄 control-families.md</text>
  
  <line x1="95" y1="170" x2="110" y2="170" stroke="#e5e7eb" stroke-width="1"/>
  <rect x="115" y="160" width="140" height="20" rx="3" fill="#fef3c7"/>
  <text x="125" y="174" font-family="Arial, sans-serif" font-size="10" fill="#92400e">📁 annexes/ (crosswalks)</text>
  
  <!-- Operating Model -->
  <line x1="50" y1="100" x2="50" y2="200" stroke="#d1d5db" stroke-width="2"/>
  <line x1="50" y1="200" x2="70" y2="200" stroke="#d1d5db" stroke-width="2"/>
  <g>
    <rect x="75" y="186" width="180" height="28" rx="4" fill="url(#folderGrad)"/>
    <text x="90" y="205" font-family="Arial, sans-serif" font-size="12" font-weight="bold" fill="#78350f">📁 operating-model/</text>
  </g>
  <text x="270" y="205" font-family="Arial, sans-serif" font-size="11" fill="#64748b">Practical implementation</text>
  
  <line x1="95" y1="214" x2="95" y2="285" stroke="#e5e7eb" stroke-width="1"/>
  <line x1="95" y1="230" x2="110" y2="230" stroke="#e5e7eb" stroke-width="1"/>
  <rect x="115" y="220" width="140" height="20" rx="3" fill="#dbeafe" stroke="#3b82f6" stroke-width="1"/>
  <text x="125" y="234" font-family="Arial, sans-serif" font-size="10" font-weight="bold" fill="#1e40af">⭐ llm-as-a-judge.md</text>
  
  <line x1="95" y1="250" x2="110" y2="250" stroke="#e5e7eb" stroke-width="1"/>
  <rect x="115" y="240" width="140" height="20" rx="3" fill="#f1f5f9"/>
  <text x="125" y="254" font-family="Arial, sans-serif" font-size="10" fill="#475569">📄 hitl-model.md</text>
  
  <line x1="95" y1="270" x2="110" y2="270" stroke="#e5e7eb" stroke-width="1"/>
  <rect x="115" y="260" width="140" height="20" rx="3" fill="#f1f5f9"/>
  <text x="125" y="274" font-family="Arial, sans-serif" font-size="10" fill="#475569">📄 agent-controls.md</text>
  
  <!-- Implementation -->
  <line x1="50" y1="200" x2="50" y2="305" stroke="#d1d5db" stroke-width="2"/>
  <line x1="50" y1="305" x2="70" y2="305" stroke="#d1d5db" stroke-width="2"/>
  <g>
    <rect x="75" y="291" width="180" height="28" rx="4" fill="url(#folderGrad)"/>
    <text x="90" y="310" font-family="Arial, sans-serif" font-size="12" font-weight="bold" fill="#78350f">📁 implementation/</text>
  </g>
  <text x="270" y="310" font-family="Arial, sans-serif" font-size="11" fill="#64748b">Getting started guides</text>
  
  <!-- Threats -->
  <line x1="50" y1="305" x2="50" y2="350" stroke="#d1d5db" stroke-width="2"/>
  <line x1="50" y1="350" x2="70" y2="350" stroke="#d1d5db" stroke-width="2"/>
  <g>
    <rect x="75" y="336" width="180" height="28" rx="4" fill="url(#folderGrad)"/>
    <text x="90" y="355" font-family="Arial, sans-serif" font-size="12" font-weight="bold" fill="#78350f">📁 threats/</text>
  </g>
  <text x="270" y="355" font-family="Arial, sans-serif" font-size="11" fill="#64748b">OWASP, MITRE ATLAS, attack mapping</text>
  
  <!-- Reference -->
  <line x1="50" y1="350" x2="50" y2="395" stroke="#d1d5db" stroke-width="2"/>
  <line x1="50" y1="395" x2="70" y2="395" stroke="#d1d5db" stroke-width="2"/>
  <g>
    <rect x="75" y="381" width="180" height="28" rx="4" fill="url(#folderGrad)"/>
    <text x="90" y="400" font-family="Arial, sans-serif" font-size="12" font-weight="bold" fill="#78350f">📁 reference/</text>
  </g>
  <text x="270" y="400" font-family="Arial, sans-serif" font-size="11" fill="#64748b">Deep technical reference</text>
  
  <!-- Templates -->
  <line x1="50" y1="395" x2="50" y2="440" stroke="#d1d5db" stroke-width="2"/>
  <line x1="50" y1="440" x2="70" y2="440" stroke="#d1d5db" stroke-width="2"/>
  <g>
    <rect x="75" y="426" width="180" height="28" rx="4" fill="url(#folderGrad)"/>
    <text x="90" y="445" font-family="Arial, sans-serif" font-size="12" font-weight="bold" fill="#78350f">📁 templates/</text>
  </g>
  <text x="270" y="445" font-family="Arial, sans-serif" font-size="11" fill="#64748b">FRIA, vendor assessment, CAP</text>
  
  <!-- Right side: Key files -->
  <rect x="500" y="50" width="230" height="180" rx="8" fill="white" stroke="#e2e8f0" stroke-width="2"/>
  <text x="615" y="75" font-family="Arial, sans-serif" font-size="12" font-weight="bold" fill="#1e293b" text-anchor="middle">Key Entry Points</text>
  
  <rect x="520" y="90" width="190" height="26" rx="4" fill="#dbeafe"/>
  <text x="530" y="108" font-family="Arial, sans-serif" font-size="10" font-weight="bold" fill="#1e40af">⭐ operating-model/model-as-judge</text>
  <text x="530" y="130" font-family="Arial, sans-serif" font-size="9" fill="#64748b">Start here for core concepts</text>
  
  <rect x="520" y="145" width="190" height="26" rx="4" fill="#dcfce7"/>
  <text x="530" y="163" font-family="Arial, sans-serif" font-size="10" font-weight="bold" fill="#166534">implementation/pilot-program</text>
  <text x="530" y="185" font-family="Arial, sans-serif" font-size="9" fill="#64748b">Start here for quick wins</text>
  
  <rect x="520" y="200" width="190" height="26" rx="4" fill="#fef3c7"/>
  <text x="530" y="218" font-family="Arial, sans-serif" font-size="10" font-weight="bold" fill="#92400e">control-framework/annexes/</text>
  <text x="530" y="240" font-family="Arial, sans-serif" font-size="9" fill="#64748b">Regulatory compliance crosswalks</text>
  
  <!-- Legend -->
  <rect x="500" y="260" width="230" height="90" rx="8" fill="white" stroke="#e2e8f0" stroke-width="2"/>
  <text x="615" y="285" font-family="Arial, sans-serif" font-size="11" font-weight="bold" fill="#475569" text-anchor="middle">Legend</text>
  
  <rect x="520" y="300" width="16" height="16" rx="2" fill="url(#folderGrad)"/>
  <text x="545" y="312" font-family="Arial, sans-serif" font-size="10" fill="#64748b">Directory</text>
  
  <rect x="620" y="300" width="16" height="16" rx="2" fill="#f1f5f9"/>
  <text x="645" y="312" font-family="Arial, sans-serif" font-size="10" fill="#64748b">Document</text>
  
  <rect x="520" y="325" width="16" height="16" rx="2" fill="#dbeafe" stroke="#3b82f6" stroke-width="1"/>
  <text x="545" y="337" font-family="Arial, sans-serif" font-size="10" fill="#64748b">Start here</text>
</svg>
